<?xml version="1.0" encoding="utf-8"?>
<!-- Generator: Adobe Illustrator 19.0.0, SVG Export Plug-In . SVG Version: 6.00 Build 0)  -->
<svg version="1.1" id="logo-donate-2_xA0_Image_1_" xmlns="http://www.w3.org/2000/svg" xmlns:xlink="http://www.w3.org/1999/xlink"
	 x="0px" y="0px" viewBox="-337 265 525 71" style="enable-background:new -337 265 525 71;" xml:space="preserve">
<style type="text/css">
	.st0{fill:none;stroke:#FFFFFF;stroke-width:4.4436;}
	.st1{fill:#ED1C24;}
	.st2{fill:#FFFFFF;}
</style>
<g>
	<path class="st0" d="M-284.2,275.1c-7.4,0-14,3.2-18.5,8.3h-30.4v33.2h30.3c4.6,5.1,11.2,8.3,18.5,8.3c13.7,0,24.9-11.1,24.9-24.9
		C-259.3,286.3-270.5,275.1-284.2,275.1z M-318.3,289h11.8c-1.1,2.3-1.9,4.8-2.3,7.4h-9.5V289z M-318.3,311.1v-9.2h9.3
		c0.2,3.3,1.1,6.4,2.5,9.2H-318.3z"/>
	<g>
		<path class="st1" d="M-309.1,300c0-13.7,11.1-24.9,24.9-24.9c13.7,0,24.9,11.1,24.9,24.9c0,13.7-11.1,24.9-24.9,24.9
			C-298,324.9-309.1,313.8-309.1,300z"/>
		<g>
			<polygon points="-333.1,283.4 -291.6,283.4 -291.6,289 -318.3,289 -318.3,296.3 -292.5,296.3 -292.5,301.9 -318.3,301.9 
				-318.3,311.1 -291.6,311.1 -291.6,316.6 -333.1,316.6 			"/>
		</g>
	</g>
	<g>
		<polygon class="st2" points="-286.1,283.4 -286.1,298.2 -283.3,298.2 -283.3,292.6 -281.5,292.6 -281.5,289.9 -283.3,289.9 
			-283.3,286.2 -280.5,286.2 -280.5,283.4 		"/>
		<polygon class="st2" points="-286.1,301.9 -286.1,316.6 -283.3,316.6 -283.3,311.1 -281.5,311.1 -281.5,308.3 -283.3,308.3 
			-283.3,304.6 -280.5,304.6 -280.5,301.9 		"/>
	</g>
</g>
<g>
	<g>
		<path d="M40.5,287.8h10.4v3.3H44v7.4h6v3.3h-6v10.4h-3.5V287.8z"/>
		<path d="M53.3,293.6c0-4,3-6,5.9-6s5.9,2,5.9,6v12.9c0,4-3,6-5.9,6c-2.8,0-5.9-2-5.9-6V293.6z M56.8,306.5c0,1.7,1.1,2.5,2.4,2.5
			s2.4-0.8,2.4-2.5v-12.9c0-1.7-1.1-2.5-2.4-2.5s-2.4,0.8-2.4,2.5V306.5z"/>
		<path d="M81.6,306.7c0,3.2-2.5,5.7-5.7,5.7c-3.1,0-5.7-2.5-5.7-5.7v-19h3.5v18.6c0,1.7,0.9,2.5,2.2,2.5c1.2,0,2.2-0.8,2.2-2.5
			v-18.5h3.5V306.7z"/>
		<path d="M86.8,287.8h3.4l5.3,14.7h0.1v-14.7h3.5v24.5h-3.3l-5.4-14.7h-0.1v14.7h-3.5V287.8z"/>
		<path d="M104.2,287.8h5.2c3.9,0,6.1,2.4,6.1,6.3v11.4c0,4.5-2.3,6.7-6.5,6.7h-4.9L104.2,287.8L104.2,287.8z M107.7,308.9h1.6
			c2,0,2.7-1,2.7-3.1v-11.7c0-1.9-0.7-3-2.7-3h-1.6V308.9z"/>
		<path d="M124.4,287.8h2.9l5.5,24.5h-3.5l-1-5.3h-4.8l-1,5.3H119L124.4,287.8z M125.9,294.8L125.9,294.8l-1.8,8.9h3.5L125.9,294.8z
			"/>
		<path d="M137,291.1h-4.1v-3.3h11.6v3.3h-4.1v21.2H137V291.1z"/>
		<path d="M148.2,287.8h3.5v24.5h-3.5V287.8z"/>
		<path d="M157,293.6c0-4,3-6,5.9-6s5.9,2,5.9,6v12.9c0,4-3,6-5.9,6c-2.8,0-5.9-2-5.9-6V293.6z M160.5,306.5c0,1.7,1.1,2.5,2.4,2.5
			s2.4-0.8,2.4-2.5v-12.9c0-1.7-1.1-2.5-2.4-2.5s-2.4,0.8-2.4,2.5V306.5z"/>
		<path d="M173.8,287.8h3.4l5.3,14.7h0.1v-14.7h3.5v24.5h-3.3l-5.4-14.7h-0.1v14.7h-3.5V287.8z"/>
	</g>
	<g>
		<path d="M-244.5,287.8h10.4v3.3h-6.9v7.2h6v3.3h-6v7.2h6.9v3.5h-10.4V287.8z"/>
		<path d="M-229.8,287.8h3.5v21h6.9v3.5h-10.4V287.8z"/>
		<path d="M-215,287.8h10.4v3.3h-6.9v7.2h6v3.3h-6v7.2h6.9v3.5H-215V287.8z"/>
		<path d="M-189.1,306.8c0,3-2.4,5.7-5.6,5.7c-2.7,0-5.8-1.3-5.8-5.8v-13.5c0-3.2,2.3-5.6,5.7-5.6c3.2,0,5.6,2.4,5.6,5.8v1.4h-3.5
			v-1.2c0-1.4-0.8-2.5-2.2-2.5c-1.8,0-2.2,1.2-2.2,2.8v12.5c0,1.4,0.5,2.5,2.1,2.5c1,0,2.2-0.5,2.2-2.5v-1.2h3.5v1.6H-189.1z"/>
		<path d="M-182.9,291.1h-4.1v-3.3h11.6v3.3h-4.1v21.2h-3.5v-21.2H-182.9z"/>
		<path d="M-171.7,287.8h5.6c4.2,0,6.2,2.4,6.2,7.2c0,2.8-0.8,4.9-3,6.1l3.8,11.2h-3.7l-3.3-10.4h-2.1v10.4h-3.5V287.8z
			 M-168.2,298.7h2c2.4,0,2.8-1.4,2.8-3.8c0-2.5-0.4-3.8-3-3.8h-1.8V298.7z"/>
		<path d="M-155.3,293.6c0-4,3-6,5.9-6s5.9,2,5.9,6v12.9c0,4-3,6-5.9,6s-5.9-2-5.9-6V293.6z M-151.8,306.5c0,1.7,1.1,2.5,2.4,2.5
			c1.3,0,2.4-0.8,2.4-2.5v-12.9c0-1.7-1.1-2.5-2.4-2.5c-1.3,0-2.4,0.8-2.4,2.5V306.5z"/>
		<path d="M-138.5,287.8h3.4l5.3,14.7h0.1v-14.7h3.5v24.5h-3.3l-5.4-14.7h-0.1v14.7h-3.5V287.8z"/>
		<path d="M-120.9,287.8h3.5v24.5h-3.5V287.8z"/>
		<path d="M-100.8,306.8c0,3-2.4,5.7-5.6,5.7c-2.7,0-5.8-1.3-5.8-5.8v-13.5c0-3.2,2.3-5.6,5.7-5.6c3.2,0,5.6,2.4,5.6,5.8v1.4h-3.5
			v-1.2c0-1.4-0.8-2.5-2.2-2.5c-1.8,0-2.2,1.2-2.2,2.8v12.5c0,1.4,0.5,2.5,2.1,2.5c1,0,2.2-0.5,2.2-2.5v-1.2h3.5v1.6H-100.8z"/>
	</g>
	<g>
		<path d="M-87.5,287.8H-77v3.3h-7v7.4h6v3.3h-6v10.4h-3.5V287.8z"/>
		<path d="M-72.7,287.8h5.6c4.2,0,6.2,2.4,6.2,7.2c0,2.8-0.8,4.9-3,6.1l3.8,11.2h-3.7l-3.3-10.4h-2.1v10.4h-3.5V287.8z M-69.2,298.7
			h2c2.4,0,2.8-1.4,2.8-3.8c0-2.5-0.4-3.8-3-3.8h-1.8V298.7z"/>
		<path d="M-56.2,293.6c0-4,3-6,5.9-6s5.9,2,5.9,6v12.9c0,4-3,6-5.9,6s-5.9-2-5.9-6V293.6z M-52.7,306.5c0,1.7,1.1,2.5,2.4,2.5
			s2.4-0.8,2.4-2.5v-12.9c0-1.7-1.1-2.5-2.4-2.5s-2.4,0.8-2.4,2.5V306.5z"/>
		<path d="M-39.4,287.8h3.4l5.3,14.7h0.1v-14.7h3.5v24.5h-3.3l-5.4-14.7h-0.1v14.7h-3.5V287.8z"/>
		<path d="M-19.7,291.1h-4.1v-3.3h11.6v3.3h-4.1v21.2h-3.5v-21.2H-19.7z"/>
		<path d="M-8.4,287.8h3.5v24.5h-3.5V287.8z"/>
		<path d="M0.5,287.8H11v3.3H4v7.2h6v3.3H4v7.2h6.9v3.5H0.5V287.8z"/>
		<path d="M15.3,287.8h5.6c4.2,0,6.2,2.4,6.2,7.2c0,2.8-0.8,4.9-3,6.1l3.8,11.2h-3.7l-3.3-10.4h-2.1v10.4h-3.5V287.8z M18.8,298.7h2
			c2.4,0,2.8-1.4,2.8-3.8c0-2.5-0.4-3.8-3-3.8h-1.8V298.7z"/>
	</g>
</g>
</svg>
